HIERARCHY
ROOT Hips
{
    OFFSET 0.0 0.0 0.0
    CHANNELS 6 Xposition Yposition Zposition Zrotation Xrotation Yrotation
    JOINT Spine
    {
        OFFSET 0.0 23.657176004761826 0.0
        CHANNELS 3 Zrotation Xrotation Yrotation
        JOINT Chest
        {
            OFFSET 0.0 23.657176004761826 0.0
            CHANNELS 3 Zrotation Xrotation Yrotation
            JOINT Head
            {
                OFFSET 0.0 13.482827422510674 0.0
                CHANNELS 3 Zrotation Xrotation Yrotation
            }
            JOINT LeftUpperArm
            {
                OFFSET 14.24593978991181 0.0 0.0
                CHANNELS 3 Zrotation Xrotation Yrotation
                JOINT LeftLowerArm
                {
                    OFFSET 24.898279427019375 0.0 0.0
                    CHANNELS 3 Zrotation Xrotation Yrotation
                    JOINT LeftHand
                    {
                        OFFSET 20.76305321072573 0.0 0.0
                        CHANNELS 3 Zrotation Xrotation Yrotation
                    }
                    End Site
                    {
                    OFFSET 6.916601457034298 0.0 0.0
                    }
                }
            }
            JOINT RightUpperArm
            {
                OFFSET -14.24593978991181 0.0 0.0
                CHANNELS 3 Zrotation Xrotation Yrotation
                JOINT RightLowerArm
                {
                    OFFSET 24.898279427019375 0.0 0.0
                    CHANNELS 3 Zrotation Xrotation Yrotation
                    JOINT RightHand
                    {
                        OFFSET 20.76305321072573 0.0 0.0
                        CHANNELS 3 Zrotation Xrotation Yrotation
                    }
                    End Site
                    {
                    OFFSET 6.916601457034298 0.0 0.0
                    }
                }
            }
        }
    }
    JOINT LeftUpperLeg
    {
        OFFSET 9.373615421607497 0.0 0.0
        CHANNELS 3 Zrotation Xrotation Yrotation
        JOINT LeftLowerLeg
        {
            OFFSET 35.43780887428284 0.0 0.0
            CHANNELS 3 Zrotation Xrotation Yrotation
            JOINT LeftFootAnkle
            {
                OFFSET 37.631257404589036 0.0 0.0
                CHANNELS 3 Zrotation Xrotation Yrotation
                End Site
                {
                OFFSET 8.471991328548343 0.0 0.0
                }
            }
        }
    }
    JOINT RightUpperLeg
    {
        OFFSET -9.373615421607497 0.0 0.0
        CHANNELS 3 Zrotation Xrotation Yrotation
        JOINT RightLowerLeg
        {
            OFFSET 35.43780887428284 0.0 0.0
            CHANNELS 3 Zrotation Xrotation Yrotation
            JOINT RightFootAnkle
            {
                OFFSET 37.631257404589036 0.0 0.0
                CHANNELS 3 Zrotation Xrotation Yrotation
                End Site
                {
                OFFSET 8.471991328548343 0.0 0.0
                }
            }
        }
    }
}
MOTION
Frames: 6
Frame Time: 0.03333333333333333
-0.08790911267309087 -0.15388463053589574 -0.005444119164192212 -6.108404858547507 8.640486291803613 23.034024473772856 -1.36147254944559 1.618148804211883 -15.0119935303235 -0.891779000708711 1.924287742748968 -15.054791133037252 13.056874447411943 32.94692428848032 17.83404404755308 135.00141570402505 -31.508708806787165 -162.36169371455384 52.442783645738686 -1.3485684236170645 88.96327468504647 -108.81809699561728 52.71297829619732 154.90979899525567 81.26994190495712 49.164979563510336 -166.58388251448974 166.5167296620513 -10.098407542849307 126.17731784811326 -137.46167555538548 -41.15215791066719 -12.100667418284594 -125.36827842806149 -62.79764281422378 -39.16612996957343 -130.78357300895243 -47.896612226601505 180.0 -148.70311885238175 58.569882932059144 180.0 166.42686945831628 -69.46797748372117 -116.16847088530547 -142.03062395995894 -24.088327880664757 180.0 -95.18922531947013 19.526727354350015 180.0
-0.09447666292477763 -0.1480528627112514 -0.004585126355690771 -4.492787924431758 5.2162495408267935 22.643085887159575 -2.6557245307461574 1.7318843718217156 -14.399108712497076 -2.132196893036857 2.3606604221420153 -14.476106009727065 13.820533575588952 34.78808263650527 15.614943657809773 131.58561273465014 -43.71801401488361 -169.41186125379545 54.79268621359902 -4.662686479401954 86.71717236404136 -110.586514403447 47.23214125272202 157.1596739931054 78.32581533849797 45.26882626975187 -164.6361073855938 -162.16674274011908 8.208298133459978 113.93157067439253 -56.074602363816375 -71.31448841343061 69.26907844053316 -120.02838308192086 -65.40903698022335 -33.36734706779091 -135.81855187524963 -42.04611851533622 180.0 -144.61146530939848 52.33223066791655 180.0 156.82634681926177 -73.34960668029952 -125.63733876514861 -144.49433899594186 -24.788809634830912 180.0 -99.1276004454133 17.64506254753838 180.0
-0.0978449859160054 -0.15464520013188962 0.004401391909555248 -3.7056345210345105 4.1551274439768235 22.485496517450066 -2.670457543666753 1.664926699448284 -14.243400529121518 -2.169944992973344 2.292385197066024 -14.316876523228306 12.755061809076174 36.22429409440234 14.25541890276811 126.04718813494503 -54.633502709366255 -176.62224737105282 40.758058721027155 -9.628896792717502 79.01732345234042 -112.62031821232233 46.72267431149944 148.0297201781298 76.96658271375486 38.77077262882561 -162.3188111912334 -152.60847146717038 7.913876515103018 104.88057096724556 -16.552108574406475 -50.14028421089799 99.38305150135695 -118.49980078393882 -66.41993284707227 -31.555541810445128 -138.7782600785495 -39.61472988491008 180.0 -144.21731351843053 50.056428121027395 180.0 157.20701233782486 -74.7244472074923 -124.06031978830677 -145.91066616849767 -23.48719771485587 180.0 -98.63734624646654 18.02671918326168 180.0
-0.10112442882091834 -0.16618871285397385 0.027310488293732768 -3.0318078464555307 3.547305344802649 22.088844406680792 -2.6854079093558667 1.6651341151198906 -14.144902899526235 -2.188241190105781 2.2927886038322156 -14.218680752418633 12.841887515575772 35.74261919653071 13.205772157717771 117.04004434023938 -65.96097778862534 174.19276917228564 44.596320914594784 -21.471171257166663 69.63368874323163 -128.51918315562887 35.25134266152083 156.59446671170406 74.64791826969243 38.88727516279022 -158.93708837684065 -146.2995833034258 5.870992975570235 98.7196984570026 -10.951611609603903 -25.819535495754984 107.29054975276809 -115.73052792714788 -67.20512864627763 -29.018232485804774 -139.91577479376235 -45.1087484575817 180.0 -144.68924518002373 49.97548231486046 180.0 146.41494603357103 -77.49252633010053 -135.53520153834893 -147.69675271161304 -22.544644761898834 180.0 -100.11237874630766 25.104449213571574 180.0
-0.10051676429372272 -0.17816409472859263 0.04903719654374126 -2.973107275260941 4.738648045477207 22.05733075301106 -2.6215539496930162 1.8889846003486648 -14.008495885963045 -2.0753434687435393 2.494275659218741 -14.093559296831616 13.0231841218185 34.07440517289272 12.325871565646619 119.04354087250633 -66.18609824711616 176.9994917586665 44.81577334990724 -29.981099394158928 63.30043038173247 -129.22132055830346 33.81913115267358 157.90684987483405 71.44462079374175 35.149128107021504 -149.8402939407039 -144.90336717611322 7.897002751553693 101.06260532224329 -6.449009093722174 -12.523569550002557 107.31797695548507 -113.5908881136083 -67.47104560970904 -27.07631865859269 -142.41694121337395 -40.83162153018508 180.0 -145.88164058854002 49.57994661053097 180.0 145.7594670152195 -78.19597706805483 -135.68601873179642 -149.0474143743598 -21.312011628189712 180.0 -100.50777053514012 24.570130724003302 180.0
-0.10145612811139722 -0.18547996911018738 0.05147423553991049 -2.36290749212379 4.197111522082219 22.06395765824607 -2.9925003990351176 1.9519986673151222 -13.419830166217233 -2.4443060949298676 2.628113288372632 -13.517575009380934 11.944688102049149 35.03851162979349 11.833273086671202 101.65728462948856 -67.33259584278632 159.53598813915147 43.28933183437034 -33.629219505301066 59.54809910595211 -132.3482748237908 27.194642794877836 163.6504827164821 68.0018786116919 39.699098921397244 -149.814070429831 -140.73925689021996 8.407548271262394 100.1422340127127 -12.720721051173953 -1.9450934217510083 115.88811487026037 -117.12493817988782 -66.26425051364356 -29.27985671643152 -146.9581779221848 -32.114190603795144 180.0 -135.36136151691625 39.836729749549725 180.0 154.74202005021746 -80.23024889604582 -125.4569899510913 -149.37568925042726 -19.22245863303572 180.0 -95.71645754724895 21.464176591127675 180.0
